<?xml version="1.0" encoding="UTF-8" standalone="no"?>
<!-- Created with Inkscape (http://www.inkscape.org/) -->

<svg
   version="1.1"
   id="svg1"
   width="2998.5569"
   height="2326.8633"
   viewBox="0 0 2998.5569 2326.8633"
   xmlns="http://www.w3.org/2000/svg"
   xmlns:svg="http://www.w3.org/2000/svg">
   <defs
      id="defs1" />
   <path
      fill="#f4707e"
      stroke="#f4707e"
      stroke-width="1.1132"
      style="display:inline"
      d="m 371.70013,2325.1174 c -10.28767,-2.2132 -14.62085,-3.6608 -22,-7.3497 -12.97464,-6.4861 -26.12874,-17.495 -33.17223,-27.7624 -3.56076,-5.1905 -8.48995,-14.7637 -11.38954,-22.12 -4.85214,-12.31 -6.39465,-33.789 -3.43647,-47.8517 6.28819,-29.893 30.61347,-55.6931 61.13455,-64.8412 15.42287,-4.6226 33.97164,-5.2181 48.95255,-1.5714 12.32066,2.9991 27.88213,11.1241 38.13297,19.9101 l 4.22182,3.6185 -7.64946,8.813 -7.64946,8.813 -5.57237,-4.5445 c -7.05123,-5.7507 -19.99587,-11.8559 -29.34426,-13.8398 -10.55186,-2.2394 -25.83808,-1.377 -36.44261,2.056 -27.76976,8.9899 -45.53846,34.9903 -44.05731,64.4678 0.59742,11.8896 3.64769,21.1628 10.20625,31.0283 17.80277,26.7792 55.53998,36.7806 85.35511,22.6214 8.43786,-4.0071 10.51971,-5.4997 18.48494,-13.253 3.39734,-3.3069 6.12505,-5.2398 6.62608,-4.6953 2.05218,2.2303 13.09944,17.6667 13.09944,18.3039 0,0.3878 -1.9125,2.5455 -4.25,4.7948 -13.5194,13.0093 -29.91498,20.893 -49.6318,23.8651 -12.23686,1.8447 -21.52417,1.7087 -31.6182,-0.4629 z m 183.5,-0.031 c -10.46621,-2.3914 -14.39345,-3.7693 -23,-8.0694 -29.96698,-14.9726 -48.24784,-45.0854 -48.24784,-79.4754 0,-24.5111 8.71546,-44.4995 26.75596,-61.3633 36.32662,-33.9573 92.86612,-33.2329 127.21781,1.6299 17.01124,17.2643 25.28311,37.5777 25.26706,62.0488 -0.0242,36.8607 -23.13061,68.6404 -59.49299,81.8242 -14.55104,5.2757 -34.25807,6.6594 -48.5,3.4052 z m 39.80955,-25.4126 c 10.97248,-3.8332 17.8761,-8.1835 26.28484,-16.5637 18.26893,-18.2067 23.63883,-45.0336 13.76292,-68.7566 -5.83673,-14.0205 -16.5594,-25.1122 -31.2994,-32.3767 -32.51439,-16.0244 -73.0727,-3.7132 -89.53783,27.1785 -6.55094,12.2908 -8.93249,31.9427 -5.50505,45.4262 5.43224,21.3703 22.42224,38.6484 44.63344,45.3904 9.38186,2.8478 10.32691,2.9549 22.85153,2.5902 9.15345,-0.2665 12.9915,-0.8559 18.80955,-2.8883 z m 1636.98882,26.3556 c -12.7452,-2.0203 -31.0355,-9.3968 -38.9637,-15.7141 l -3.6652,-2.9205 4.5313,-7.9266 c 2.4922,-4.3596 5.1674,-8.9436 5.9449,-10.1866 l 1.4135,-2.2601 5.2523,3.9655 c 11.3471,8.5672 25.3238,12.5546 41.6132,11.8719 7.6796,-0.3219 10.7109,-0.9252 15.3111,-3.0475 10.7069,-4.9395 18.515,-15.2979 22.1723,-29.4141 1.3334,-5.1465 1.5919,-12.9824 1.5919,-48.25 v -42.1053 h -17.8225 -17.8225 l -2.594,-6.25 c -1.4267,-3.4375 -3.7509,-8.8375 -5.1649,-12 l -2.5709,-5.75 h 35.0529 35.0529 l -0.3683,57.75 c -0.3545,55.5829 -0.4498,58.0427 -2.5375,65.5505 -6.2237,22.3809 -21.0901,37.7013 -43.3501,44.674 -7.4392,2.3303 -24.5189,3.3699 -33.0767,2.0133 z m 191.3568,-0.5773 c -9.2091,-2.0156 -18.0531,-4.8748 -23.1764,-7.4926 -27.8342,-14.2224 -45.5947,-39.8796 -49.1306,-70.9752 -4.8742,-42.8651 22.533,-81.0104 66.9277,-93.1499 10.3585,-2.8325 33.4794,-3.0821 43.188,-0.4662 33.6501,9.0666 57.4914,32.1863 66.1764,64.1734 3.0772,11.3332 3.0991,32.6028 0.045,43.7959 -7.4793,27.4125 -29.2324,50.6041 -56.6326,60.3776 -13.8567,4.9426 -34.4655,6.5674 -47.3976,3.737 z m 29.744,-23.3914 c 7.046,-1.3362 19.2251,-6.3262 24.9126,-10.2071 6.8924,-4.703 16.2034,-14.4961 20.1139,-21.1553 7.5937,-12.9315 10.3571,-33.0585 6.5539,-47.7356 -7.2415,-27.9458 -34.1288,-47.9645 -64.3402,-47.9037 -12.1199,0.024 -21.1369,2.1664 -31.9167,7.5821 -13.0435,6.553 -21.605,15.1265 -27.6348,27.6737 -5.4083,11.2539 -6.9836,18.3231 -6.8473,30.7268 0.186,16.9181 5.59,29.4157 18.2031,42.0973 12.6243,12.6928 29.3392,19.6436 47.6698,19.8232 4.4624,0.044 10.441,-0.3619 13.2857,-0.9014 z m -1740.89917,-50.446 v -71.5727 h -6.82252 -6.82251 l -2.59401,-6.25 c -1.4267,-3.4375 -3.76281,-8.8645 -5.19136,-12.0599 l -2.59736,-5.8099 49.26388,0.362 c 55.48838,0.4078 54.07098,0.2414 70.43618,8.2686 15.4413,7.5741 29.2034,22.2799 36.6478,39.1606 4.8479,10.9933 6.8548,20.6851 7.0049,33.8286 0.2065,18.0919 -3.6873,32.2938 -13.373,48.7757 -5.9466,10.119 -21.3385,25.2367 -29.9865,29.4522 -13.1707,6.4201 -14.6227,6.5984 -57.2155,7.0273 l -38.75,0.3902 z m 73.0142,46.4246 c 12.8764,-2.442 26.4969,-12.2214 33.7475,-24.2307 18.2133,-30.167 7.5841,-74.5646 -21.1112,-88.1799 -10.3583,-4.9148 -15.1932,-5.5867 -40.1997,-5.5867 h -22.4508 v 59.5 59.5 h 22.3635 c 12.2999,0 24.7427,-0.4512 27.6507,-1.0027 z m 105.9858,-58.4973 v -83.5 h 58.5 58.49997 v 12 12 h -46.49997 -46.5 v 25.5 c 0,20.2564 0.2673,25.5 1.3,25.5 0.715,0 1.7731,-0.4731 2.3513,-1.0513 3.0854,-3.0854 12.1127,-4.1934 38.0987,-4.6763 l 26.25,-0.4877 v 11.9728 11.9727 l -25.75,0.5583 c -26.1263,0.5664 -31.6691,1.2886 -39,5.0814 l -3.25,1.6815 v 21.4743 21.4743 h 51.5 51.49997 v 12 12 h -63.49997 -63.5 z m 228.99997,-0.052 v -83.5521 l 49.25,0.3068 49.25,0.3068 6,2.4016 c 7.7101,3.0862 12.4019,6.0618 17.018,10.7929 8.8914,9.113 13.1763,22.1857 12.1972,37.2119 -1.3553,20.7968 -11.8656,35.4582 -30.0041,41.8546 -6.8274,2.4076 -8.7275,2.5816 -35.7111,3.2698 -29.066,0.7414 -34.1349,1.4126 -42.25,5.5941 l -2.75,1.4171 v 31.9742 31.9743 h -11.5 -11.5 z m 32.5,-8.5723 c 5.4688,-2.0212 8.479,-2.2742 34,-2.858 25.7547,-0.5891 28.3208,-0.8081 32,-2.7317 8.1416,-4.2565 11.5835,-10.5536 11.6174,-21.2538 0.029,-9.1313 -1.4288,-13.9723 -5.3518,-17.7747 -6.1621,-5.9726 -8.2967,-6.2574 -46.8913,-6.2574 h -34.8743 v 27.1166 c 0,25.3759 0.1123,27.0801 1.75,26.5465 0.9625,-0.3135 4.45,-1.568 7.75,-2.7875 z m 138.5,8.6243 v -83.5 h 12 12 v 71.5 71.5 h 46.5 46.5 v 12 12 h -58.5 -58.5 z m 132.9547,71.25 c 3.2032,-6.7375 18.2863,-37.9 33.5181,-69.25 15.2319,-31.35 28.8432,-59.5937 30.2475,-62.7639 l 2.5531,-5.7638 -4.1367,-9.3954 c -2.2752,-5.1675 -4.1367,-9.6613 -4.1367,-9.9862 0,-0.3249 5.7819,-0.5907 12.8486,-0.5907 h 12.8485 l 4.5297,9.75 c 2.4913,5.3625 18.3718,39 35.2899,74.75 16.9182,35.75 32.9262,69.6125 35.5733,75.25 l 4.813,10.25 h -13.3069 -13.307 l -5.3223,-12.0754 -5.3224,-12.0754 -36.0722,0.394 c -39.5294,0.4318 -43.643,0.9658 -55.7856,7.241 -6.7902,3.5092 -9.3173,5.8828 -12.512,11.7525 l -2.5925,4.7633 h -12.7756 -12.7757 z m 61.4263,-34.2021 c 6.233,-1.0864 15.5505,-1.5479 31.25,-1.5479 13.4673,0 22.369,-0.3782 22.369,-0.9504 0,-2.0577 -36.3163,-71.1277 -36.9968,-70.3643 -0.5775,0.6479 -34.8215,74.3923 -36.6994,79.0321 -0.271,0.6696 2.1373,-0.096 5.3517,-1.7021 3.3629,-1.6799 9.6154,-3.5768 14.7255,-4.4674 z m 178.619,10.3444 v -36.1078 l -9.3429,-11.1422 c -17.8505,-21.2885 -29.2275,-37.6943 -40.3201,-58.1423 -5.4008,-9.9558 -12.337,-24.0905 -12.337,-25.1405 0,-0.2288 6.1168,-0.2907 13.593,-0.1377 l 13.5929,0.2782 2.2586,5.5548 c 8.2726,20.3467 23.4345,44.412 39.4701,62.6478 l 4.5749,5.2026 2.8462,-2.7026 c 12.857,-12.2082 35.767,-48.1424 42.3306,-66.395 l 1.7288,-4.8076 h 13.7697 13.7697 l -4.4829,9.6587 c -7.9823,17.1983 -19.8791,36.9359 -32.754,54.3413 -7.3607,9.9507 -20.3019,25.5968 -23.0759,27.899 -1.4419,1.1967 -1.6217,5.4335 -1.6217,38.2234 v 36.8776 h -12 -12 z m 178,-47.3923 v -83.5 h 59 59 v 12 12 h -47 -47 v 25.6166 c 0,23.9398 0.1146,25.5806 1.75,25.0663 0.9625,-0.3027 3.6824,-1.2598 6.0443,-2.127 7.245,-2.6599 16.7913,-3.5155 39.4557,-3.5361 l 21.75,-0.02 v 11.8665 11.8664 l -26.25,0.5493 c -22.0904,0.4623 -27.2019,0.8534 -32.2569,2.4683 -11.4912,3.6709 -10.4931,1.2184 -10.4931,25.7847 v 21.4648 h 52 52 v 12 12 h -64 -64 z m 173,11.5348 v -71.9652 l -2.7927,-3.2848 c -1.536,-1.8066 -5.8498,-6.9973 -9.5863,-11.5348 l -6.7936,-8.25 h 15.3708 15.3707 l 52.826,62.9692 c 29.0543,34.6331 53.4513,63.4882 54.2156,64.1225 1.1836,0.9823 1.3895,-8.3506 1.3895,-62.9693 v -64.1224 h 12 12 v 83.5 83.5 h -11.9286 -11.9287 l -47.8213,-57.4334 c -26.3018,-31.5884 -48.1589,-57.4634 -48.5714,-57.5 -0.4125,-0.037 -0.75,25.8084 -0.75,57.4334 v 57.5 h -11.5 -11.5 z m 598,35.9972 v -35.9681 l -6.3394,-7.2819 c -14.3765,-16.5142 -29.8412,-37.8292 -39.3831,-54.282 -5.1825,-8.936 -16.2775,-31.0469 -16.2775,-32.439 0,-0.6951 4.6088,-1.061 13.3641,-1.061 h 13.3642 l 1.7715,4.75 c 5.8457,15.6742 19.8848,39.2537 33.1934,55.75 12.4328,15.4108 10.754,14.9293 18.889,5.4177 14.5586,-17.0224 27.1445,-36.9249 35.5191,-56.1677 l 4.2433,-9.75 h 13.3277 c 7.3302,0 13.3277,0.2324 13.3277,0.5163 0,0.284 -2.0081,4.8136 -4.4624,10.0657 -11.3428,24.2729 -28.3857,50.0824 -49.1605,74.4478 l -8.3771,9.8249 v 36.0727 36.0726 h -11.5 -11.5 z M 110.20013,1981.4106 c -1.925,-0.2411 -7.325,-1.1159 -11.999995,-1.9442 -44.39738,-7.8652 -79.37065,-36.2067 -91.8395294,-74.4244 -4.82257,-14.7814 -5.35327,-19.2814 -5.86721001,-49.75 L 1.5587114e-5,1826.042 H 38.461995 76.923965 l 0.72272,18.0321 c 1.15555,28.8319 4.83361,42.0971 14.50876,52.3271 9.807515,10.37 25.619305,14.9791 43.950965,12.8116 20.96332,-2.4786 31.54096,-12.3221 36.71938,-34.1708 1.6523,-6.9713 1.80089,-17.7031 2.108,-152.25 l 0.33041,-144.75 h 42.96796 42.96797 v 142.2561 c 0,118.5971 -0.24368,144.334 -1.46521,154.75 -7.08531,60.4168 -37.69951,94.2514 -94.53479,104.479 -9.215,1.6583 -46.58121,2.9379 -55,1.8835 z m 443,-0.4685 c -20.39184,-2.2852 -40.21563,-7.3844 -56.5956,-14.5579 -54.25399,-23.7603 -93.85595,-74.1579 -106.74353,-135.8422 -4.08371,-19.546 -5.07239,-30.4441 -5.03497,-55.5 0.0383,-25.6238 1.82872,-41.5181 6.92399,-61.4659 13.20998,-51.7165 42.70612,-92.5102 86.70808,-119.9187 29.48849,-18.3681 74.07587,-27.8731 116.09854,-24.7495 58.09272,4.3181 102.42547,27.292 135.66831,70.3052 25.67218,33.2176 38.94928,71.7084 42.03088,121.8501 3.7667,61.2874 -12.0974,114.6543 -46.21828,155.4788 -31.76546,38.0063 -71.38601,58.7213 -123.33742,64.4851 -10.54148,1.1695 -38.73702,1.1211 -49.5,-0.085 z m 48.38875,-73.4081 c 36.58879,-7.5612 63.49978,-32.9661 76.57464,-72.2891 5.8545,-17.6075 8.13169,-34.1969 8.11036,-59.0841 -0.0411,-47.9617 -12.02005,-83.9532 -35.73593,-107.3706 -19.6959,-19.448 -41.33401,-27.7482 -72.33782,-27.7482 -26.78742,0 -45.96192,6.2539 -64.57653,21.0622 -29.76238,23.6764 -46.14339,72.7127 -42.49573,127.2102 2.1398,31.9697 8.39106,53.8562 21.23048,74.331 16.44336,26.222 39.7623,41.0395 71.34178,45.3325 9.39491,1.2771 28.18718,0.561 37.88875,-1.4439 z m 294.61125,-132.0026 v -197.5106 l 43.1093,0.2606 43.1092,0.2606 82.14077,131.9209 c 45.1774,72.5565 82.7032,132.1065 83.3907,132.3333 0.9958,0.3286 1.25,-26.5509 1.25,-132.1709 V 1578.042 h 40 40 v 197.5106 197.5106 l -43.0878,-0.2606 -43.0878,-0.2606 -82.1304,-132.25 c -45.1717,-72.7375 -82.48217,-132.25 -82.91217,-132.25 -0.43,0 -0.7818,59.625 -0.7818,132.5 v 132.5 h -40.5 -40.5 z m 432.24167,196.2712 c 0.255,-0.6933 33.9425,-89.5632 74.861,-197.4886 l 74.3973,-196.228 44.5828,-0.022 44.5828,-0.022 73.3346,196.25 c 40.334,107.9375 73.5341,196.8172 73.7781,197.5104 0.3535,1.0041 -8.6547,1.2074 -44.313,1 l -44.7567,-0.2604 -13.3631,-39.5 c -7.3497,-21.725 -14.0725,-41.4154 -14.9394,-43.7563 l -1.5764,-4.2564 -74.5159,0.2564 -74.5159,0.2563 -15.2863,43.5 -15.2863,43.5 -43.7237,0.2606 c -34.8399,0.2076 -43.6295,0 -43.2599,-1 z m 243.7583,-152.1393 c 0,-0.3057 -47.7472,-139.5862 -49.5497,-144.5385 -0.3159,-0.8678 -0.8743,-1.0588 -1.4405,-0.4926 -0.7398,0.7398 -52.0098,143.7191 -52.0098,145.0424 0,0.2021 23.175,0.3674 51.5,0.3674 28.325,0 51.5,-0.1704 51.5,-0.3787 z m 301.9911,76.1287 -0.01,-77.25 -72.4264,-120 -72.4264,-120 48.1399,-0.2597 c 37.7098,-0.2035 48.3854,0.013 49.273,1 0.6232,0.6928 21.5547,35.7737 46.5143,77.9575 24.9597,42.1837 45.6203,76.4663 45.9124,76.1834 0.2921,-0.2829 21.0206,-35.2469 46.0632,-77.6978 l 45.5322,-77.1834 48.1913,-0.2596 48.1912,-0.2596 -31.798,52.7596 c -17.4889,29.0178 -50.5519,83.8792 -73.4734,121.9143 l -41.6744,69.1547 v 75.5953 75.5953 h -43 -43 z m 330.0089,-120.25 v -197.5 h 43.4942 43.4941 l 0.2559,81.7172 0.2558,81.7172 35,-37.062 c 19.25,-20.384 53.9,-57.1367 77,-81.6725 l 42,-44.6105 53.8669,-0.045 53.867,-0.045 -76.367,77.147 c -42.0018,42.4308 -76.3325,77.8683 -76.2905,78.75 0.058,1.2096 153.1438,218.6005 166.0871,235.853 l 2.4383,3.25 -54.3009,-0.034 -54.3009,-0.034 -14.1561,-21.2163 c -27.8362,-41.7194 -104.5743,-156.2251 -105.0021,-156.6802 -0.2399,-0.2551 -11.6602,10.7699 -25.3786,24.5 l -24.9425,24.9638 -0.01,64.25 -0.01,64.25 h -43.5 -43.5 z m 464,-0.034 v -197.5339 l 108.25,0.3464 c 106.5626,0.341 108.4293,0.3806 119.75,2.5417 37.5151,7.1614 61.3023,22.5326 73.8972,47.7518 11.1807,22.3878 12.9484,56.0948 4.1696,79.5082 -6.8545,18.2813 -22.4055,35.367 -42.1506,46.3107 -5.9964,3.3235 -6.1958,3.551 -3.8692,4.4139 1.3491,0.5004 5.05,1.8713 8.2242,3.0464 32.9778,12.2085 53.4017,36.9244 60.3876,73.0776 2.4179,12.5135 2.2256,35.7294 -0.3983,48.0711 -5.8629,27.5769 -21.1188,49.6316 -45.418,65.6585 -20.3197,13.4022 -44.584,21.0488 -74.0677,23.3416 -6.7511,0.525 -56.4873,0.9647 -110.5248,0.9772 l -98.25,0.023 z m 206.1435,127.8053 c 26.2506,-7.3327 37.8565,-22.672 37.8565,-50.0341 0,-24.9442 -8.7722,-41.4787 -26.4632,-49.8802 -13.619,-6.4676 -15.1327,-6.6082 -76.2868,-7.0864 l -55.25,-0.432 v 55.141 55.1409 l 56.25,-0.357 c 53.7896,-0.3415 56.5843,-0.4505 63.8935,-2.4922 z m -16.1435,-166.7019 c 11.4967,-2.0859 18.3014,-5.0782 24.564,-10.8019 10.0713,-9.2046 14.1093,-20.9975 13.1936,-38.5322 -0.6661,-12.7547 -3.2078,-19.4473 -10.2912,-27.0982 -3.8498,-4.1583 -7.3251,-6.6978 -12.311,-8.9959 -13.2701,-6.1166 -15.7144,-6.3567 -69.9054,-6.8668 l -49.25,-0.4635 v 47.0945 47.0946 l 48.25,-0.035 c 36.2248,-0.026 50.1192,-0.374 55.75,-1.3957 z m -1506.5,-345.0669 c -8.4751,-1.5945 -12.921,-3.1685 -22.0392,-7.8028 -8.6503,-4.3965 -12.2688,-7.0655 -20.2893,-14.9659 -10.3456,-10.1907 -17.8929,-23.2301 -21.8789,-37.8001 -2.4481,-8.9485 -2.4479,-30.8943 4e-4,-39.9337 7.7463,-28.6 31.3647,-52.0456 59.457,-59.0217 l 4.25,-1.0554 V 1114.5035 998.04199 l -70.25,-0.022 c -66.3256,-0.021 -70.4788,-0.1258 -74.3455,-1.8819 -2.524,-1.1463 -5.018,-3.3441 -6.5,-5.728 l -2.4045,-3.8681 -0.2757,-71.25 -0.2757,-71.25 h -99.9781 -99.97807 l 0.2538,127.6116 0.2538,127.61171 7.49997,2.2024 c 24.4445,7.1781 45.4332,26.7126 53.9293,50.1926 10.7545,29.7214 4.412,60.2121 -17.2998,83.1671 -25.0645,26.4998 -63.75627,33.5595 -96.14777,17.5431 -15.9817,-7.9023 -28.2223,-19.9221 -36.7405,-36.078 -6.2052,-11.7687 -8.7251,-22.3976 -8.7342,-36.8405 -0.01,-13.7644 2.2657,-23.4581 8.4253,-35.91 9.8558,-19.924 27.8351,-35.0439 50.0438,-42.085 l 7.0239,-2.2269 0.5,-138.52091 c 0.498,-137.9575 0.5084,-138.5321 2.5618,-141.2823 1.134,-1.5187 3.3044,-3.6891 4.8231,-4.8231 2.7448,-2.0495 3.4222,-2.0634 113.18817,-2.3247 l 110.4269,-0.263 V 696.55041 581.08469 l -109.75,-0.27135 c -122.10257,-0.30189 -113.26637,0.2209 -118.42117,-7.00626 l -2.3288,-3.26509 -0.2603,-138.59318 -0.2604,-138.59319 -5.3543,-1.19824 c -6.2167,-1.39124 -17.6559,-6.67826 -24.4181,-11.28563 -13.3312,-9.08322 -25.5234,-24.24175 -31.0634,-38.6212 -3.88,-10.07078 -5.1765,-17.62246 -5.2057,-30.3216 -0.071,-30.78748 18.0515,-58.58853 47.151,-72.3329 12.3748,-5.84493 18.467,-7.05288 35.4112,-7.02121 14.3048,0.0267 15.4375,0.1793 24.43847,3.29167 36.4781,12.61342 58.8856,45.35004 56.811,82.99894 -1.0533,19.11506 -9.1182,36.50484 -23.7495,51.20927 -10.038,10.08815 -20.4344,16.54301 -33.5075,20.80398 l -8.99247,2.93094 v 127.36618 127.36617 l 99.72427,0.25483 99.7243,0.25482 0.2757,-71.25482 c 0.3062,-79.15051 -0.069,-74.8767 7.0106,-79.92599 l 3.2651,-2.32884 71.7541,-0.26934 71.7542,-0.26934 -0.2542,-116.61662 -0.2541,-116.61662 -5.5,-1.36517 c -8.3565,-2.07418 -22.7092,-9.57675 -30.2282,-15.80116 -9.0593,-7.49954 -15.9091,-16.23182 -21.2276,-27.06175 -5.8601,-11.93272 -7.5224,-18.617206 -8.2062,-32.999996 -0.8638,-18.1674 2.8456,-31.65861 13.0356,-47.41072 24.5563,-37.96008973 75.9806,-48.61615 113.6767,-23.55586 7.9864,5.30938 20.0656,17.87255 24.8043,25.79829 19.0147,31.80271 15.0244,70.454046 -10.144,98.257546 -8.5307,9.42385 -24.1871,18.87489 -37.2106,22.4623 l -6,1.65274 -0.2541,116.65202 -0.2542,116.65201 116.2542,-0.25416 116.2541,-0.25417 0.2542,-115.62409 c 0.2017,-91.75833 0,-115.82671 -1,-116.60568 -0.6898,-0.53986 -3.4461,-1.51669 -6.125,-2.17071 -25.7401,-6.28413 -49.346,-30.35739 -56.8445,-57.96995 -3.0517,-11.237326 -3.0502,-30.765736 0,-41.428746 7.903,-27.60063 28.9268,-48.97303 56.7123,-57.6527097 9.9904,-3.12080003 27.4115,-3.85505003 38.4411,-1.62017 29.2261,5.92195 52.7791,26.9425997 62.2669,55.5720597 2.9476,8.89455 3.1529,10.45597 3.2201,24.5 0.063,13.07024 -0.2297,15.96035 -2.2721,22.464756 -8.7075,27.72987 -28.7103,47.76747 -55.9412,56.03863 l -7.2118,2.19141 v 116.38326 116.38326 l 71.9272,0.26934 c 70.8736,0.26539 71.9675,0.29954 74.6882,2.33113 1.5185,1.13398 3.6888,3.30426 4.8228,4.82285 2.0316,2.72062 2.0657,3.81458 2.3311,74.68821 l 0.2694,71.92715 h 99.9806 99.9807 v -128 c 0,-121.233 -0.093,-128.00071 -1.75,-128.01338 -3.8756,-0.0296 -18.6163,-6.0079 -25.6998,-10.42285 -23.8388,-14.85807 -37.6719,-37.98259 -39.2311,-65.58179 -2.3116,-40.91639 27.5835,-77.34012 68.9521,-84.01022 42.4099,-6.83799 82.824,20.05298 92.879,61.80039 6.4762,26.88865 -1.2346,54.86806 -20.5219,74.46598 -10.4697,10.63836 -22.5033,18.05265 -36.1283,22.25986 l -7,2.16151 -0.5,138.59707 -0.5,138.59706 -2.1045,2.82319 c -1.1575,1.55275 -3.6325,3.72318 -5.5,4.82318 -3.3322,1.96269 -5.4427,2.00498 -113.1455,2.26719 l -109.75,0.2672 v 115.46988 115.46983 l 110.4269,0.263 c 109.766,0.2613 110.4434,0.2752 113.1882,2.3247 1.5187,1.134 3.6891,3.3044 4.8231,4.8232 2.0534,2.7501 2.0638,3.3242 2.5618,141.3361 l 0.5,138.57471 6,1.6527 c 16.7116,4.6032 34.1988,16.7187 43.9268,30.4333 16.255,22.9165 20.3316,48.9178 11.6511,74.3121 -12.9349,37.8399 -54.1656,61.7086 -92.8077,53.7269 -31.6263,-6.5326 -55.8071,-28.707 -64.471,-59.1216 -2.9257,-10.2706 -3.181,-30.4565 -0.5097,-40.2992 3.8699,-14.2592 12.6287,-28.9126 23.3432,-39.0528 10.2134,-9.6659 18.5274,-14.5553 32.3673,-19.035 l 8.5,-2.7513 0.2538,-127.58051 0.2538,-127.5804 h -99.9845 -99.9844 l -0.2694,71.8283 -0.2693,71.8283 -2.8097,3.6832 c -5.2776,6.9185 -2.163,6.6602 -80.3124,6.6602 h -70.3779 v 116.25001 116.25 l 8.847,2.7958 c 12.7662,4.0343 23.0742,10.4239 33.2371,20.6025 10.093,10.1086 15.5531,18.8693 20.0071,32.1017 6.0007,17.827 5.0294,40.3547 -2.4711,57.3147 -8.106,18.329 -22.933,33.263 -41.9333,42.2358 -11.6506,5.5019 -18.4133,6.8837 -33.6911,6.8837 -15.3454,0 -22.0341,-1.3784 -33.9112,-6.9883 -45.907,-21.683 -61.9388,-78.0611 -34.0156,-119.6209 5.8233,-8.6671 17.1593,-19.4615 25.8482,-24.6132 3.9779,-2.3586 11.5854,-5.7559 16.9056,-7.5496 l 9.673,-3.2614 0.2542,-116.2004 0.2584,-116.20041 h -116.5041 -116.5042 v 116.46151 116.4614 l 4.25,1.058 c 24.0379,5.9836 46.152,25.1085 55.3423,47.8613 4.6633,11.5453 5.836,17.9233 5.8209,31.6578 -0.016,14.6271 -1.4054,21.2643 -6.9788,33.3403 -15.8256,34.2898 -53.0473,53.6022 -89.9344,46.6622 z m 31.4322,-33.617 c 35.6461,-12.2195 45.6033,-57.5325 18.2621,-83.107 -10.1626,-9.5059 -20.1525,-13.2942 -34.6943,-13.1564 -15.3253,0.1452 -25.8506,4.7113 -36.2802,15.739 -18.3899,19.4446 -17.3854,51.232 2.1919,69.3607 13.6559,12.6455 33.4428,17.0179 50.5205,11.1637 z m 261.5678,0.922 c 2.2,-0.546 6.9682,-2.5454 10.5961,-4.4431 24.171,-12.6437 32.9919,-42.6574 19.8069,-67.3949 -8.0876,-15.1741 -26.0683,-25.9041 -43.493,-25.9547 -6.8585,-0.02 -19.3469,3.2844 -25.1638,6.658 -17.1784,9.9633 -27.3688,30.902 -24.3991,50.1345 4.6408,30.0559 32.718,48.4297 62.6529,41.0002 z M 991.76643,1227.9617 c 9.24917,-1.684 18.05107,-6.476 25.50667,-13.8864 7.5985,-7.5526 11.2703,-14.3676 13.4984,-25.0538 2.7928,-13.3945 -0.6995,-28.6783 -9.0766,-39.7225 -9.7161,-12.8097 -23.57597,-19.6029 -39.99477,-19.6029 -21.3853,0 -39.6352,12.893 -46.5023,32.8525 -8.1971,23.8254 2.2376,50.1079 24.1887,60.9255 10.8883,5.3657 20.3525,6.6774 32.3799,4.4876 z m 1034.54717,0.065 c 2.9626,-0.5583 8.6753,-2.5737 12.695,-4.4785 29.134,-13.8058 36.3603,-53.5597 14.1528,-77.8582 -9.8194,-10.744 -21.2612,-15.8154 -35.9613,-15.9394 -14.1416,-0.1193 -24.498,3.9356 -34.7216,13.5945 -10.5468,9.9642 -15.2784,20.9534 -15.2784,35.4838 0,20.4471 9.831,36.4638 27.5564,44.8948 10.6729,5.0766 20.4089,6.4041 31.5571,4.303 z M 1769.2001,696.54199 v -269.5 h -270 -270 v 269.5 269.5 h 270 270 z M 994.50683,261.55032 c 11.75307,-3.0613 23.14927,-11.27306 29.51907,-21.27059 9.921,-15.57127 10.0266,-37.88416 0.2512,-53.11768 -11.9159,-18.56941 -34.01287,-26.97924 -55.83487,-21.25006 -30.2754,7.94854 -44.8267,41.60062 -30.4629,70.44977 6.2425,12.53764 19.5573,23.10917 32.2208,25.58228 7.1699,1.40024 18.0989,1.22321 24.3067,-0.39372 z m 1032.80677,0.48639 c 17.4886,-3.26389 32.6201,-18.03087 37.3548,-36.45482 7.9726,-31.02325 -15.6054,-61.59729 -47.4467,-61.52512 -14.5642,0.033 -26.033,4.76303 -36.0686,14.87565 -9.9177,9.99385 -13.953,19.87406 -13.953,34.16317 0,10.6745 2.4123,19.17986 7.8072,27.52685 11.1605,17.26745 31.0015,25.39038 52.3063,21.41427 z M 1383.7001,128.90572 c 28.0854,-9.2538 41.5925,-43.040236 27.9609,-69.940856 -3.1899,-6.29508 -12.307,-16.16062 -18.0408,-19.52185 -8.2664,-4.84589 -15.2709,-6.67797 -25.9201,-6.77955 -15.3342,-0.14627 -26.9534,4.55464 -36.89,14.92507 -17.7575,18.53277 -18.0119,48.72263 -0.5713,67.805386 13.5942,14.87421 33.8153,19.98491 53.4613,13.5118 z m 255.7101,2.03572 c 33.3734,-5.17806 51.5262,-40.819506 36.5221,-71.707936 -7.6895,-15.83008 -26.1084,-27.12384 -44.3222,-27.17673 -7.2892,-0.0212 -19.9853,3.4877 -26.2455,7.25356 -16.824,10.12065 -26.4011,30.61133 -23.313,49.87955 3.8731,24.166076 22.9768,41.012056 48.4569,42.730166 0.9947,0.0671 5.0004,-0.37331 8.9017,-0.97861 z"
      id="path8" />
</svg>